<?xml version="1.0" encoding="UTF-8"?>
<svg id="Layer_1" data-name="Layer 1" xmlns="http://www.w3.org/2000/svg" version="1.1" viewBox="0 0 576 576">
  <defs>
    <style>
      .cls-1 {
        fill: #000;
        stroke-width: 0px;
      }
    </style>
  </defs>
  <path class="cls-1" d="M15.5,542v-140c0-11.9,9.5-21.7,21.9-21.7h6.2c12.4,0,21.9,9.8,21.9,21.7v54.1h-20.6v-56c0-2.1-1.8-4.1-4.4-4.1s-4.4,2.1-4.4,4.1v143.4c0,2.1,1.8,4.1,4.4,4.1s4.4-2.1,4.4-4.1v-58.3h20.6v56.7c0,11.9-9.5,21.4-21.9,21.4h-6.2c-12.4,0-21.9-9.5-21.9-21.4Z"/>
  <path class="cls-1" d="M68,381.4h159v180.7H68v-180.7Z"/>
  <path class="cls-1" d="M280.5,374.8l85.2,187.3h-170.4l85.2-187.3Z"/>
  <path class="cls-1" d="M327.4,509.1v-74.2l52.5-53h74.7l53,53v74.2l-53,53h-74.7l-52.5-53Z"/>
  <path class="cls-1" d="M510.5,542v-51.6h20.6v53.1c0,2.1,1.8,4.1,4.4,4.1s4.4-2.1,4.4-4.1v-41.5l-29.4-59.1v-41c0-11.9,9.5-21.7,21.9-21.7h6.2c12.4,0,21.9,9.8,21.9,21.7v49h-20.6v-50.8c0-2.1-1.8-4.1-4.4-4.1s-4.4,2.1-4.4,4.1v40l29.4,59v42.8c0,11.9-9.5,21.4-21.9,21.4h-6.2c-12.4,0-21.9-9.5-21.9-21.4Z"/>
</svg>